<?xml version="1.0" encoding="utf-8"?>
<!-- Generator: Adobe Illustrator 16.0.3, SVG Export Plug-In . SVG Version: 6.00 Build 0)  -->
<!DOCTYPE svg PUBLIC "-//W3C//DTD SVG 1.1//EN" "http://www.w3.org/Graphics/SVG/1.1/DTD/svg11.dtd">
<svg version="1.1" id="Layer_1" xmlns="http://www.w3.org/2000/svg" xmlns:xlink="http://www.w3.org/1999/xlink" x="0px" y="0px"
	 width="940px" height="940px" viewBox="0 0 940 940" enable-background="new 0 0 940 940" xml:space="preserve">
<g id="Layer_2">
	<g>
		<path fill="#284752" stroke="#284752" stroke-width="0.5" stroke-miterlimit="10" d="M399.366,132.318
			c-186.499,39.03-306.045,221.854-267.015,408.354c39.03,186.5,221.854,306.044,408.354,267.015
			c186.5-39.03,306.045-221.854,267.016-408.354C768.69,212.833,585.867,93.288,399.366,132.318z M510.99,665.733
			c-96.313,20.156-212.276-38.37-235.802-150.778c-23.773-113.604,45.827-218.063,154.322-240.769
			c122.794-25.698,217.079,63.225,236.253,154.854C689.752,543.66,612.378,644.515,510.99,665.733z"/>
	</g>
	<rect x="-327.5" y="500.5" fill="#284757" stroke="#284752" stroke-miterlimit="10" width="151" height="235"/>
	<rect x="-129.5" y="243.5" fill="#396A8F" stroke="#284752" stroke-miterlimit="10" width="95" height="148"/>
</g>
<g id="Layer_1_1_">
	<g>
		<path fill="#B07535" stroke="#B07535" stroke-miterlimit="10" d="M399.858,132.222l-21.509-102.78
			c-70.473,14.749-132.907,44.26-189.231,89.701l65.343,81.431c40.951-32.821,90.024-56.77,144.907-68.255
			C399.531,132.284,399.694,132.256,399.858,132.222z"/>
		<path fill="#579190" stroke="#55ADAC" stroke-width="0.5" stroke-miterlimit="10" d="M254.385,200.631l-65.37-81.467
			C95.076,194.951,40.371,293.285,25.373,413.317l102.368,13.001C139.111,337.195,185.092,256.197,254.385,200.631z"/>
		<path fill="#667843" stroke="#667843" stroke-width="0.5" stroke-miterlimit="10" d="M132.353,540.674
			c-8.098-38.695-9.349-77.228-4.611-114.354L25.373,413.317C7.356,557.508,50.26,683.56,152.471,786.722l73.3-73.06
			C180.021,667.885,146.599,608.746,132.353,540.674z"/>
		<path fill="#9C5061" stroke="#9C5061" stroke-width="0.5" stroke-miterlimit="10" d="M225.771,713.663l-73.3,73.06
			c102.21,103.154,235.702,148.501,379.25,128.821L517.438,811.72C407.108,827.135,300.138,788.074,225.771,713.663z"/>
		<path fill="#BA9134" stroke="#BA9134" stroke-width="0.5" stroke-miterlimit="10" d="M540.706,807.688
			c-7.768,1.625-15.525,2.951-23.27,4.032l14.283,103.822c95.691-13.125,172.934-49.734,243.749-115.544l-70.997-76.836
			C660.084,764.347,604.291,794.381,540.706,807.688z"/>
		<path fill="#6A568A" stroke="#6A568A" stroke-width="0.5" stroke-miterlimit="10" d="M704.473,723.163L775.47,800
			c53.023-49.28,91.105-106.632,116.011-174.707l-97.678-36.063C774.979,640.196,744.332,686.18,704.473,723.163z"/>
		<path fill="#424B7D" stroke="#424B7D" stroke-width="0.5" stroke-miterlimit="10" d="M883.692,295.634l-95.712,40.343
			c8.438,20.081,15.112,41.24,19.741,63.356c13.771,65.813,7.775,131.157-13.919,189.897l97.678,36.063
			C933.024,511.753,930.555,407.184,883.692,295.634z"/>
		<path fill="#AD564D" stroke="#AD564D" stroke-width="0.5" stroke-miterlimit="10" d="M787.98,335.976l95.712-40.343
			c-37.523-89.33-98.65-160.297-181.333-210.515l-54.004,89.569C709.541,211.653,759.176,267.437,787.98,335.976z"/>
		<path fill="#5E9C69" stroke="#5E9C69" stroke-width="0.5" stroke-miterlimit="10" d="M648.355,174.688l54.004-89.569
			c-41.315-25.09-75.483-39.438-122.278-51.332l-25.547,101.662C587.744,143.863,619.345,157.162,648.355,174.688z"/>
		<path fill="#4783A6" stroke="#4783A6" stroke-miterlimit="10" d="M579.988,33.763c-70.134-17.819-131.166-19.069-201.64-4.321
			l21.509,102.78c52.9-10.993,105.491-9.222,154.582,3.201L579.988,33.763"/>
		<g>
			<path fill="#5C5C5C" stroke="#000000" stroke-width="0.5" stroke-miterlimit="10" d="M367.452,341.476l-22.253-27.734
				c-0.023,0.019-0.045,0.035-0.063,0.052l22.256,27.735C367.408,341.511,367.43,341.494,367.452,341.476z"/>
			<path fill="#B07535" stroke="#B07535" stroke-miterlimit="10" d="M436.35,309.068c0.161-0.031,0.3-0.056,0.438-0.086
				l-7.277-34.796c-0.15,0.029-0.29,0.056-0.43,0.086c-31.771,6.646-60.16,20.494-83.883,39.469l22.253,27.734
				C386.938,325.897,410.274,314.527,436.35,309.068z"/>
			<path fill="#579190" stroke="#55ADAC" stroke-width="0.5" stroke-miterlimit="10" d="M367.393,341.529l-22.256-27.735
				c-40.203,32.196-66.877,79.15-73.488,130.824l35.271,4.48C312.363,406.606,334.326,367.996,367.393,341.529z"/>
			<path fill="#667843" stroke="#667843" stroke-width="0.5" stroke-miterlimit="10" d="M328.493,611.265l25.184-25.103
				c-21.832-21.822-37.78-50.021-44.569-82.479c-3.861-18.471-4.453-36.864-2.188-54.585l-35.271-4.48
				c-2.754,21.54-2.039,43.896,2.66,66.348C282.575,550.438,301.955,584.726,328.493,611.265z"/>
			<path fill="#9C5061" stroke="#9C5061" stroke-width="0.5" stroke-miterlimit="10" d="M353.676,586.163l-25.184,25.103
				c43.125,43.138,105.152,65.766,169.116,56.788l-4.815-35.218C440.175,640.236,389.142,621.635,353.676,586.163z"/>
			<path fill="#BA9134" stroke="#BA9134" stroke-width="0.5" stroke-miterlimit="10" d="M503.726,630.937
				c-3.666,0.764-7.321,1.387-10.933,1.898l4.815,35.218c4.469-0.624,8.946-1.388,13.382-2.319
				c36.918-7.722,69.28-25.159,95.02-49.072l-24.121-26.115C560.704,610.229,534.066,624.584,503.726,630.937z"/>
			<path fill="#6A568A" stroke="#6A568A" stroke-width="0.5" stroke-miterlimit="10" d="M581.889,590.546l24.121,26.115
				c23.088-21.441,40.812-48.096,51.719-77.633l-33.354-12.313C615.428,550.995,600.834,572.911,581.889,590.546z"/>
			<path fill="#424B7D" stroke="#424B7D" stroke-width="0.5" stroke-miterlimit="10" d="M630.966,436.322
				c6.544,31.321,3.716,62.424-6.593,90.393l33.354,12.313c12.54-34.024,16.014-71.872,8.036-109.988
				c-2.676-12.82-6.54-25.086-11.456-36.727l-32.757,13.809C625.589,415.695,628.777,425.781,630.966,436.322z"/>
			<path fill="#AD564D" stroke="#AD564D" stroke-width="0.5" stroke-miterlimit="10" d="M621.552,406.123l32.757-13.809
				c-16.673-39.704-45.41-72.023-80.869-93.448l-18.357,30.447C584.232,346.929,607.829,373.494,621.552,406.123z"/>
			<path fill="#5E9C69" stroke="#5E9C69" stroke-width="0.5" stroke-miterlimit="10" d="M510.467,310.606
				c15.797,4.021,30.85,10.359,44.615,18.707l18.356-30.447c-16.795-10.155-35.08-17.864-54.319-22.749L510.467,310.606z"/>
			<path fill="#4783A6" stroke="#4783A6" stroke-miterlimit="10" d="M510.398,310.584l8.658-34.487
				c-28.454-7.21-58.892-8.253-89.545-1.91l7.278,34.796C461.973,303.782,487.026,304.649,510.398,310.584z"/>
		</g>
	</g>
</g>
<g id="Layer_3">
	<g>
		<path fill="none" d="M456.505,270.463l-16.86-249.436l16.589,249.453C456.323,270.474,456.414,270.469,456.505,270.463z"/>
		<path fill="none" stroke="#808080" stroke-width="0.5" stroke-miterlimit="10" d="M309.233,49l89.515,234.081
			c9.549-3.642,19.446-6.575,29.632-8.73L377.75,29C356.22,33.524,331.755,40.414,309.233,49"/>
		<path fill="none" stroke="#808080" stroke-width="0.5" stroke-miterlimit="10" d="M398.291,283.254L309.233,49
			c-22.34,8.542-42.555,18.84-63.314,30.763l124.473,216.77C379.281,291.416,388.608,286.975,398.291,283.254z"/>
		<path fill="none" stroke="#808080" stroke-width="0.5" stroke-miterlimit="10" d="M370.391,296.532L245.918,79.762
			c-20.917,12.007-38.031,23.54-56.802,38.668l155.39,195.851C352.637,307.72,361.283,301.772,370.391,296.532z"/>
		<path fill="none" stroke="#808080" stroke-width="0.5" stroke-miterlimit="10" d="M344.506,314.281L189.116,118.43
			c-18.771,15.127-36.652,31.8-52.822,49.677L321.69,335.825C328.717,328.063,336.351,320.862,344.506,314.281z"/>
		<path fill="none" stroke="#808080" stroke-width="0.5" stroke-miterlimit="10" d="M321.69,335.825L136.294,168.107
			c-16.166,17.876-25.239,29.426-38.76,49.378l206.913,140.272C309.688,350.045,315.451,342.716,321.69,335.825z"/>
		<path fill="none" stroke="#808080" stroke-width="0.5" stroke-miterlimit="10" d="M304.448,357.758L97.534,217.485
			C84,237.44,72.852,257.039,62.613,278.861L288.911,385.03C293.387,375.506,298.585,366.389,304.448,357.758z"/>
		<path fill="none" stroke="#808080" stroke-width="0.5" stroke-miterlimit="10" d="M288.911,385.03L62.613,278.861
			c-10.237,21.824-17.148,43.222-23.848,66.378l239.074,69.16C280.77,404.254,284.486,394.443,288.911,385.03z"/>
		<path fill="none" stroke="#808080" stroke-width="0.5" stroke-miterlimit="10" d="M277.839,414.399l-239.074-69.16
			c-6.702,23.158-10.313,43.481-13.308,67.401l246.078,32.506C272.841,434.622,274.965,424.352,277.839,414.399z"/>
		<path fill="none" stroke="#808080" stroke-width="0.5" stroke-miterlimit="10" d="M270,470c0-8.416,0.525-16.71,1.536-24.854
			L25.458,412.64c-2.995,23.92-4.872,47.905-4.087,71.999l248.745-8.142C270.047,474.34,270,472.177,270,470z"/>
		<path fill="none" stroke="#808080" stroke-width="0.5" stroke-miterlimit="10" d="M270.116,476.498l-248.745,8.142
			c0.786,24.093,1.162,38.7,5.297,62.448l246.266-42.829C271.37,495.198,270.417,485.931,270.116,476.498z"/>
		<path fill="none" stroke="#808080" stroke-width="0.5" stroke-miterlimit="10" d="M272.934,504.259L26.668,547.088
			c4.132,23.751,9.724,45.593,17.52,68.402l236.506-80.817C277.341,524.855,274.736,514.694,272.934,504.259z"/>
		<path fill="none" stroke="#808080" stroke-width="0.5" stroke-miterlimit="10" d="M280.694,534.673L44.188,615.49
			c7.789,22.813,16.732,43.512,28.005,64.821l220.97-116.831C288.288,554.278,284.104,544.655,280.694,534.673z"/>
		<path fill="none" stroke="#808080" stroke-width="0.5" stroke-miterlimit="10" d="M293.162,563.48L72.192,680.312
			c11.27,21.311,24.229,39.688,38.69,58.974l199.095-149.303C303.706,581.634,298.082,572.771,293.162,563.48z"/>
		<path fill="none" stroke="#808080" stroke-width="0.5" stroke-miterlimit="10" d="M309.978,589.982L110.882,739.285
			c14.46,19.285,24.581,30.353,41.589,47.438l175.77-175.646C321.679,604.482,315.573,597.435,309.978,589.982z"/>
		<path fill="none" stroke="#808080" stroke-width="0.5" stroke-miterlimit="10" d="M328.24,611.076l-175.77,175.646
			c17.008,17.087,33.197,31.804,52.67,46.019L352.054,631.52C343.589,625.327,335.622,618.493,328.24,611.076z"/>
		<path fill="none" stroke="#808080" stroke-width="0.5" stroke-miterlimit="10" d="M352.054,631.52L205.141,832.74
			c19.475,14.213,38.177,26.711,59.629,37.707l113.987-222.429C369.401,643.215,360.481,637.684,352.054,631.52z"/>
		<path fill="none" stroke="#808080" stroke-width="0.5" stroke-miterlimit="10" d="M378.757,648.019L264.77,870.447
			c21.449,10.994,42.259,20.368,65.172,27.869L407.73,660.1C397.7,656.817,388.017,652.774,378.757,648.019z"/>
		<path fill="none" stroke="#808080" stroke-width="0.5" stroke-miterlimit="10" d="M407.73,660.101l-77.788,238.216
			c22.907,7.503,44.822,13.056,68.62,16.884L438.24,667.48C427.776,665.81,417.585,663.327,407.73,660.101z"/>
		<path fill="none" stroke="#808080" stroke-width="0.5" stroke-miterlimit="10" d="M438.24,667.479L398.562,915.2
			c23.797,3.828,38.422,4.206,62.531,4.683l4.943-249.933C456.596,669.767,447.316,668.929,438.24,667.479z"/>
		<path fill="none" stroke="#808080" stroke-width="0.5" stroke-miterlimit="10" d="M470,670c-1.325,0-2.645-0.023-3.964-0.05
			l-4.943,249.933c24.095,0.479,46.606-0.848,70.488-4.146l-34.212-247.607C488.42,669.353,479.285,670,470,670z"/>
		<path fill="none" stroke="#808080" stroke-width="0.5" stroke-miterlimit="10" d="M497.369,668.129l34.212,247.606
			c23.87-3.297,45.889-7.736,68.979-14.735l-72.521-239.564C518.119,664.438,507.875,666.689,497.369,668.129z"/>
		<path fill="none" stroke="#808080" stroke-width="0.5" stroke-miterlimit="10" d="M528.039,661.435L600.561,901
			c23.059-6.992,44.497-14.796,66.199-25.314L557.271,649.998C547.912,654.545,538.145,658.375,528.039,661.435z"/>
		<path fill="none" stroke="#808080" stroke-width="0.5" stroke-miterlimit="10" d="M557.271,649.998L666.76,875.685
			c21.675-10.513,34.128-18.247,54.161-31.684L581.463,636.08C573.762,641.259,565.681,645.913,557.271,649.998z"/>
		<path fill="none" stroke="#808080" stroke-width="0.5" stroke-miterlimit="10" d="M581.463,636.08l139.458,207.922
			c20.003-13.434,36.865-27.198,54.549-43.604L606.054,616.574C598.389,623.692,590.172,630.223,581.463,636.08z"/>
		<path fill="none" stroke="#808080" stroke-width="0.5" stroke-miterlimit="10" d="M606.054,616.574L775.47,800.398
			c17.652-16.395,33.577-33.583,48.461-52.546l-196.608-154.35C620.846,601.742,613.725,609.451,606.054,616.574z"/>
		<path fill="none" stroke="#808080" stroke-width="0.5" stroke-miterlimit="10" d="M627.323,593.503L823.93,747.853
			c14.886-18.96,27.365-37.73,39.104-58.787L644.718,567.378C639.593,576.553,633.778,585.29,627.323,593.503z"/>
		<path fill="none" stroke="#808080" stroke-width="0.5" stroke-miterlimit="10" d="M644.718,567.378l218.315,121.688
			c11.734-21.057,20.165-41.143,28.446-63.772L657.83,538.854C654.2,548.755,649.799,558.281,644.718,567.378z"/>
		<path fill="none" stroke="#808080" stroke-width="0.5" stroke-miterlimit="10" d="M657.83,538.854l233.649,86.438
			c8.313-22.636,13.384-37.154,18.449-60.722L665.56,512.032C663.596,521.221,661.012,530.181,657.83,538.854z"/>
		<path fill="none" stroke="#808080" stroke-width="0.5" stroke-miterlimit="10" d="M665.561,512.032l244.369,52.539
			c5.062-23.565,8.746-45.913,10.074-69.985l-250.305-13.665C669.129,491.532,667.724,501.924,665.561,512.032z"/>
		<path fill="none" stroke="#808080" stroke-width="0.5" stroke-miterlimit="10" d="M918.298,423.999l-249.331,25.546
			C669.649,456.27,670,463.094,670,470c0,3.664-0.105,7.305-0.301,10.921l250.305,13.665
			C921.323,470.515,920.758,447.978,918.298,423.999z"/>
		<path fill="none" stroke="#808080" stroke-width="0.5" stroke-miterlimit="10" d="M668.967,449.545l249.331-25.546
			c-2.461-23.98-7.193-46.163-13.396-69.459l-241.564,64.123C665.988,428.673,667.894,438.984,668.967,449.545z"/>
		<path fill="none" stroke="#808080" stroke-width="0.5" stroke-miterlimit="10" d="M663.337,418.663l241.564-64.123
			c-6.172-23.302-11.79-36.692-21.151-58.906L654.323,392.25C657.921,400.768,660.935,409.591,663.337,418.663z"/>
		<path fill="none" stroke="#808080" stroke-width="0.5" stroke-miterlimit="10" d="M654.323,392.25l229.428-96.616
			c-9.386-22.208-19.452-42.373-32.184-62.846L639.858,364.392C645.372,373.242,650.226,382.547,654.323,392.25z"/>
		<path fill="none" stroke="#808080" stroke-width="0.5" stroke-miterlimit="10" d="M639.858,364.392l211.709-131.604
			c-12.717-20.476-25.511-38.992-41.276-57.224L621.24,339.128C628.084,347.029,634.306,355.48,639.858,364.392z"/>
		<path fill="none" stroke="#808080" stroke-width="0.5" stroke-miterlimit="10" d="M621.24,339.128l189.052-163.563
			c-15.776-18.229-31.831-34.068-50.253-49.607L598.897,317.089C606.904,323.846,614.383,331.209,621.24,339.128z"/>
		<path fill="none" stroke="#808080" stroke-width="0.5" stroke-miterlimit="10" d="M598.897,317.089l161.142-191.133
			c-18.419-15.541-36.763-28.673-57.394-41.138L573.406,298.777C582.394,304.216,590.908,310.349,598.897,317.089z"/>
		<path fill="none" stroke="#808080" stroke-width="0.5" stroke-miterlimit="10" d="M573.406,298.777L702.646,84.818
			c-20.634-12.464-33.699-19.161-55.854-28.636l-98.207,229.855C557.185,289.717,565.478,293.978,573.406,298.777z"/>
		<path fill="none" stroke="#808080" stroke-width="0.5" stroke-miterlimit="10" d="M548.584,286.039l98.207-229.855
			C624.608,46.716,603.885,39.386,580.5,33.5l-61.67,242.516C529.086,278.589,539.026,281.95,548.584,286.039z"/>
		<path fill="none" stroke="#808080" stroke-width="0.5" stroke-miterlimit="10" d="M518.83,276.015L580.5,33.5
			c-23.358-5.89-46.23-10.314-70.232-12.472l-22.376,249.778C498.462,271.743,508.797,273.498,518.83,276.015z"/>
		<path fill="none" stroke="#808080" stroke-width="0.5" stroke-miterlimit="10" d="M470,270c6.03,0,11.995,0.283,17.892,0.807
			l22.376-249.778c-24.029-2.154-46.577-2.652-70.623-1.028l16.86,250.463C460.967,270.166,465.464,270,470,270z"/>
		<path fill="none" stroke="#808080" stroke-width="0.5" stroke-miterlimit="10" d="M456.234,270.48L439.645,20
			c-24.081,1.63-39.386,4.271-61.895,9l50.63,245.35C437.452,272.429,446.752,271.125,456.234,270.48z"/>
	</g>
	<rect x="-136.5" y="413.5" fill="#1B313B" stroke="#808080" stroke-miterlimit="10" width="106" height="287"/>
</g>
<g id="Layer_4">
</g>
<g id="Layer_5">
	<g id="text">
		<g id="Layer_2_1_">
			<path fill="none" d="M468.657,277.611c110.866-3.869,190.21,84.352,193.749,185.678c3.445,98.595-86.618,195.656-185.679,199.107
				C373.306,666.012,280.57,561.402,277.61,476.724C273.78,367.097,371.854,280.994,468.657,277.611z"/>
			<g>
				<path fill="#FFFFFF" d="M376.74,312.582l-1.99,1.251l1.155,1.853l2.228-1.395l0.346,0.558l-2.884,1.81l-3.212-5.135l2.768-1.741
					l0.352,0.557l-2.107,1.325l1.015,1.622l1.995-1.25L376.74,312.582z"/>
				<path fill="#FFFFFF" d="M382.858,312.01c-0.178,0.272-0.594,0.685-1.231,1.061c-1.467,0.871-3.117,0.593-4.129-1.119
					c-0.964-1.632-0.505-3.396,1.104-4.35c0.654-0.382,1.143-0.487,1.377-0.501l0.157,0.648c-0.328,0.026-0.743,0.148-1.181,0.404
					c-1.219,0.725-1.564,1.985-0.764,3.358c0.754,1.275,1.976,1.665,3.239,0.915c0.414-0.244,0.778-0.575,0.967-0.869
					L382.858,312.01z"/>
				<path fill="#FFFFFF" d="M386.631,306.597c1.009,1.827,0.435,3.409-0.921,4.158c-1.393,0.773-2.977,0.229-3.862-1.38
					c-0.927-1.687-0.49-3.367,0.924-4.148C384.221,304.427,385.77,305.02,386.631,306.597z M382.573,308.953
					c0.626,1.137,1.797,1.815,2.875,1.218c1.083-0.6,1.149-1.939,0.483-3.145c-0.584-1.059-1.743-1.858-2.88-1.228
					C381.919,306.428,381.93,307.786,382.573,308.953z"/>
				<path fill="#FFFFFF" d="M388.99,308.864l-2.739-5.409l0.76-0.387l3.124,1.854c0.719,0.429,1.32,0.841,1.854,1.266l0.017-0.018
					c-0.433-0.688-0.783-1.34-1.209-2.181l-1.147-2.264l0.661-0.334l2.734,5.412l-0.702,0.355l-3.101-1.872
					c-0.684-0.413-1.356-0.848-1.925-1.293l-0.02,0.021c0.39,0.661,0.732,1.304,1.189,2.204l1.162,2.311L388.99,308.864z"/>
				<path fill="#FFFFFF" d="M397.6,301.225c0.875,1.892,0.201,3.432-1.197,4.087c-1.448,0.674-2.991,0.026-3.761-1.64
					c-0.81-1.741-0.26-3.393,1.203-4.074C395.339,298.898,396.842,299.596,397.6,301.225z M393.39,303.304
					c0.548,1.173,1.673,1.93,2.787,1.409c1.122-0.523,1.271-1.857,0.691-3.104c-0.503-1.094-1.607-1.965-2.787-1.414
					C392.908,300.741,392.825,302.098,393.39,303.304z"/>
				<path fill="#FFFFFF" d="M403.438,299.198c-0.369-0.764-0.821-1.679-1.101-2.376l-0.025,0.011c0.09,0.736,0.148,1.53,0.19,2.419
					l0.155,3.125l-0.545,0.232l-2.024-2.279c-0.594-0.673-1.122-1.301-1.563-1.897l-0.014,0.006
					c0.276,0.705,0.631,1.658,0.934,2.519l0.863,2.458l-0.689,0.291l-1.963-5.75l0.917-0.388l2.086,2.299
					c0.521,0.589,0.971,1.124,1.357,1.646l0.021-0.014c-0.099-0.625-0.159-1.319-0.205-2.131l-0.15-3.123l0.919-0.388l2.703,5.438
					l-0.704,0.299L403.438,299.198z"/>
				<path fill="#FFFFFF" d="M407.665,300.397l-0.923-2.404l-3.028-2.577l0.826-0.317l1.399,1.255
					c0.384,0.347,0.677,0.628,1.003,0.954l0.016-0.006c0.019-0.431,0.074-0.875,0.13-1.387l0.213-1.875l0.828-0.321l-0.648,3.982
					l0.924,2.411L407.665,300.397z"/>
				<path fill="#FFFFFF" d="M559.549,633.191l-1.253-2.206l-2.544,1.441l1.251,2.206l-0.696,0.389l-2.98-5.277l0.7-0.389l1.393,2.48
					l2.545-1.443l-1.393-2.479l0.675-0.387l2.979,5.277L559.549,633.191z"/>
				<path fill="#FFFFFF" d="M550.716,634.353l2.09-1.101l-1.022-1.937l-2.311,1.23l-0.305-0.59l3.006-1.587l2.819,5.357
					l-2.886,1.531l-0.313-0.58l2.208-1.162l-0.896-1.701l-2.084,1.105L550.716,634.353z"/>
				<path fill="#FFFFFF" d="M548.271,634.552L548,632.566l0.723-0.356l0.823,6.354l-0.841,0.418l-4.53-4.524l0.75-0.369l1.42,1.422
					L548.271,634.552z M546.763,635.985l1.294,1.299c0.311,0.29,0.539,0.579,0.771,0.854l0.017-0.008
					c-0.073-0.362-0.15-0.738-0.209-1.122l-0.242-1.838L546.763,635.985z"/>
				<path fill="#FFFFFF" d="M545.929,640.312l-0.704,0.328l-2.259-4.914l-2.35,1.081l-0.269-0.595l3.064-1.407L545.929,640.312z"/>
				<path fill="#FFFFFF" d="M541.405,641.645l1.688-0.736l0.265,0.61l-4.101,1.798l-0.268-0.609l1.69-0.741l-2.156-4.949
					l0.725-0.316L541.405,641.645z"/>
				<path fill="#FFFFFF" d="M537.782,643.927l-0.956-2.354l-2.706,1.099l0.94,2.354l-0.732,0.298l-2.264-5.624l0.732-0.3l1.06,2.641
					l2.718-1.102l-1.059-2.644l0.727-0.296l2.262,5.629L537.782,643.927z"/>
				<path fill="#FFFFFF" d="M429.655,644.896l0.212,6.248l-0.804-0.171l-0.057-3.153c-0.017-0.781-0.017-1.555,0.006-2.147
					l-0.016-0.001c-0.225,0.561-0.563,1.23-0.928,1.951l-1.432,2.814l-0.799-0.17l-0.075-3.163
					c-0.015-0.738-0.021-1.477,0.026-2.119l-0.017-0.006c-0.259,0.622-0.572,1.247-0.915,1.948l-1.423,2.815l-0.784-0.167
					l2.951-5.566l0.799,0.18l0.077,3.24c0.016,0.797,0.015,1.402-0.026,2.021l0.016,0.011c0.228-0.573,0.487-1.12,0.874-1.84
					l1.511-2.906L429.655,644.896z"/>
				<path fill="#FFFFFF" d="M421.007,649.154l0.622-2.469l-2.838-0.727l-0.621,2.463l-0.764-0.195l1.501-5.873l0.765,0.188
					l-0.708,2.761l2.834,0.729l0.709-2.762l0.758,0.198l-1.502,5.872L421.007,649.154z"/>
				<path fill="#FFFFFF" d="M416.17,643.563l1.136-1.656l0.772,0.217l-3.65,5.259l-0.912-0.261l-0.301-6.402l0.804,0.229l0.09,2.018
					L416.17,643.563z M414.09,643.594l0.091,1.85c0.02,0.414,0.007,0.783-0.004,1.146l0.016,0.01
					c0.188-0.325,0.386-0.645,0.598-0.964l1.054-1.524L414.09,643.594z"/>
				<path fill="#FFFFFF" d="M410.344,645.462l1.756,0.554l-0.199,0.634l-4.271-1.344l0.198-0.633l1.761,0.552l1.625-5.146
					l0.755,0.241L410.344,645.462z"/>
				<path fill="#FFFFFF" d="M406.448,638.497l-0.62,6.225l-0.774-0.285l0.37-3.126c0.086-0.771,0.186-1.531,0.29-2.124l-0.017-0.011
					c-0.296,0.535-0.718,1.146-1.18,1.813l-1.796,2.594l-0.765-0.272l0.353-3.136c0.087-0.738,0.176-1.469,0.307-2.104l-0.015-0.009
					c-0.345,0.59-0.732,1.159-1.16,1.804l-1.796,2.604l-0.751-0.271l3.673-5.11l0.769,0.275l-0.365,3.219
					c-0.078,0.794-0.167,1.401-0.299,2.002l0.015,0.006c0.301-0.528,0.636-1.041,1.11-1.695l1.885-2.672L406.448,638.497z"/>
				<path fill="#FFFFFF" d="M396.343,637.683l2.177,0.883l0.814-2.033l-2.432-0.977l0.244-0.614l3.156,1.269l-2.252,5.628
					l-3.035-1.22l0.246-0.607l2.306,0.928l0.709-1.777l-2.183-0.876L396.343,637.683z"/>
				<path fill="#FFFFFF" d="M392.073,639.303c-0.463-0.134-0.997-0.306-1.563-0.565c-1.024-0.455-1.648-1.021-1.931-1.684
					c-0.288-0.671-0.291-1.441,0.104-2.337c0.4-0.908,1.011-1.521,1.753-1.794c0.745-0.286,1.721-0.191,2.794,0.293
					c0.51,0.227,0.923,0.445,1.271,0.646L392.073,639.303z M393.545,634.091c-0.166-0.115-0.426-0.244-0.71-0.358
					c-1.523-0.687-2.73-0.203-3.396,1.292c-0.586,1.305-0.219,2.468,1.288,3.137c0.367,0.156,0.659,0.253,0.866,0.297
					L393.545,634.091z"/>
				<path fill="#FFFFFF" d="M383.089,631.902c0.913-1.876,2.539-2.313,3.923-1.635c1.44,0.7,1.901,2.311,1.102,3.956
					c-0.842,1.735-2.461,2.338-3.921,1.635C382.707,635.13,382.303,633.516,383.089,631.902z M387.356,633.873
					c0.563-1.164,0.441-2.514-0.664-3.059c-1.107-0.537-2.24,0.181-2.843,1.425c-0.53,1.081-0.512,2.487,0.657,3.056
					C385.665,635.865,386.773,635.073,387.356,633.873z"/>
				<path fill="#FFFFFF" d="M312.056,553.257l-4.751,4.063l-0.362-0.738l2.431-2.015c0.594-0.497,1.201-0.968,1.679-1.321
					l-0.007-0.016c-0.588,0.172-1.313,0.327-2.103,0.478l-3.098,0.637l-0.358-0.73l2.432-2.035c0.567-0.477,1.141-0.928,1.673-1.298
					l-0.011-0.01c-0.646,0.18-1.332,0.327-2.087,0.482l-3.089,0.646l-0.356-0.721l6.187-1.146l0.36,0.737l-2.491,2.08
					c-0.611,0.517-1.081,0.892-1.595,1.234l0.01,0.015c0.587-0.177,1.174-0.308,1.976-0.453l3.209-0.618L312.056,553.257z"/>
				<path fill="#FFFFFF" d="M303.344,549.114l2.313-1.052l-1.197-2.664l-2.313,1.043l-0.324-0.725l5.518-2.496l0.324,0.722
					l-2.588,1.165l1.202,2.678l2.587-1.165l0.318,0.708l-5.518,2.502L303.344,549.114z"/>
				<path fill="#FFFFFF" d="M303.015,540.201l0.902,2.191l2.019-0.839l-1.006-2.439l0.606-0.243l1.306,3.146l-5.594,2.327
					l-1.253-3.026l0.606-0.245l0.954,2.305l1.769-0.733l-0.903-2.176L303.015,540.201z"/>
				<path fill="#FFFFFF" d="M299.595,540.113c-0.212-0.352-0.459-0.854-0.653-1.365c-0.303-0.783-0.353-1.33-0.166-1.811
					c0.138-0.385,0.46-0.691,0.898-0.87c0.746-0.283,1.421-0.01,1.854,0.517l0.026-0.014c-0.018-0.503,0.278-0.916,0.818-1.279
					c0.719-0.479,1.208-0.824,1.379-1.037l0.295,0.76c-0.128,0.162-0.563,0.474-1.203,0.907c-0.713,0.465-0.891,0.872-0.657,1.56
					l0.263,0.688l2.444-0.954l0.282,0.729L299.595,540.113z M301.886,538.382l-0.286-0.75c-0.306-0.781-0.919-1.105-1.566-0.863
					c-0.729,0.289-0.843,0.94-0.555,1.719c0.131,0.354,0.269,0.579,0.344,0.696L301.886,538.382z"/>
				<path fill="#FFFFFF" d="M299.73,531.468l0.791,2.219l2.055-0.736l-0.883-2.481l0.622-0.213l1.147,3.207l-5.701,2.053
					l-1.101-3.086l0.617-0.214l0.836,2.335l1.803-0.64l-0.79-2.216L299.73,531.468z"/>
				<path fill="#FFFFFF" d="M301.195,526.923l-5.324,3.271l-0.244-0.792l2.711-1.605c0.667-0.396,1.338-0.779,1.863-1.048
					l-0.007-0.017c-0.604,0.092-1.345,0.127-2.15,0.163l-3.156,0.125l-0.243-0.785l2.71-1.609c0.641-0.377,1.275-0.743,1.856-1.024
					l-0.006-0.008c-0.672,0.063-1.363,0.104-2.141,0.149l-3.149,0.158l-0.24-0.767l6.285-0.172l0.243,0.786l-2.778,1.68
					c-0.679,0.41-1.213,0.705-1.773,0.963l0.008,0.015c0.609-0.079,1.216-0.132,2.025-0.149l3.265-0.104L301.195,526.923z"/>
				<path fill="#FFFFFF" d="M295.721,518.342l0.623,2.272l2.103-0.575l-0.698-2.527l0.632-0.187l0.904,3.283l-5.833,1.62
					l-0.869-3.154l0.629-0.178l0.665,2.408l1.842-0.508l-0.628-2.274L295.721,518.342z"/>
				<path fill="#FFFFFF" d="M291.796,515.969l-0.187-0.764l5.25-1.262l-0.601-2.515l0.639-0.163l0.782,3.288L291.796,515.969z"/>
				<path fill="#FFFFFF" d="M290.641,510.999l5.911-1.316l0.169,0.763l-5.914,1.319L290.641,510.999z"/>
				<path fill="#FFFFFF" d="M296,507.054l-5.543,3.138l-0.167-0.831l2.735-1.516c0.75-0.415,1.431-0.779,2.093-1.078l-0.006-0.014
					c-0.718-0.034-1.517-0.118-2.341-0.232l-3.134-0.415l-0.164-0.825l6.357,0.942L296,507.054z"/>
				<path fill="#FFFFFF" d="M291.973,500.893l0.404,2.324l2.146-0.378l-0.445-2.587l0.644-0.113l0.588,3.358l-5.96,1.037
					l-0.562-3.22l0.643-0.114l0.427,2.451l1.887-0.332l-0.406-2.313L291.973,500.893z"/>
			</g>
			<g enable-background="new    ">
				<path fill="#FFFFFF" d="M522.09,294.171c-0.363,0.027-1.052,0.042-1.804-0.173c-0.838-0.243-1.472-0.661-1.872-1.342
					c-0.345-0.608-0.436-1.446-0.182-2.333c0.468-1.686,1.955-2.599,3.821-2.068c0.638,0.184,1.105,0.474,1.305,0.657l-0.336,0.547
					c-0.255-0.219-0.595-0.437-1.165-0.595c-1.348-0.384-2.465,0.223-2.855,1.641c-0.399,1.442,0.209,2.532,1.511,2.899
					c0.462,0.129,0.812,0.158,0.99,0.119l0.478-1.689l-1.137-0.32l0.153-0.59l1.841,0.521L522.09,294.171z"/>
			</g>
			<g enable-background="new    ">
				<path fill="#FFFFFF" d="M528.638,293.367c-0.594,1.937-2.063,2.589-3.479,2.146c-1.452-0.472-2.11-1.944-1.584-3.644
					c0.548-1.779,1.991-2.6,3.461-2.131C528.543,290.217,529.158,291.704,528.638,293.367z M524.342,292.096
					c-0.377,1.2-0.071,2.479,1.049,2.835c1.129,0.36,2.086-0.495,2.481-1.771c0.351-1.115,0.144-2.465-1.046-2.843
					C525.651,289.943,524.717,290.861,524.342,292.096z"/>
			</g>
			<g enable-background="new    ">
				<path fill="#FFFFFF" d="M529.81,296.957l0.129-6.183l0.764,0.268l-0.094,3.036c-0.021,0.836-0.052,1.582-0.134,2.285
					l0.015,0.006c0.373-0.59,0.847-1.206,1.346-1.851l1.859-2.418l0.752,0.263l-3.855,4.876L529.81,296.957z"/>
			</g>
			<g enable-background="new    ">
				<path fill="#FFFFFF" d="M536.819,296.612l-2.1-0.802l-0.734,1.988l2.345,0.894l-0.225,0.597l-3.038-1.157l2.045-5.514
					l2.915,1.111l-0.21,0.599l-2.22-0.844l-0.658,1.737l2.109,0.803L536.819,296.612z"/>
			</g>
			<g enable-background="new    ">
				<path fill="#FFFFFF" d="M539.119,294.248c0.379,0.07,0.901,0.234,1.375,0.429c0.738,0.307,1.157,0.641,1.368,1.08
					c0.166,0.357,0.168,0.786,0.013,1.209c-0.285,0.72-0.93,1.021-1.567,0.98l-0.015,0.025c0.358,0.312,0.448,0.802,0.35,1.42
					c-0.131,0.835-0.206,1.415-0.182,1.667l-0.718-0.29c-0.021-0.19,0.039-0.708,0.158-1.45c0.146-0.818-0.032-1.218-0.644-1.5
					l-0.647-0.266l-0.945,2.36l-0.688-0.28L539.119,294.248z M538.826,297.02l0.702,0.284c0.736,0.31,1.369,0.085,1.629-0.542
					c0.273-0.701-0.104-1.214-0.829-1.523c-0.327-0.134-0.586-0.203-0.702-0.217L538.826,297.02z"/>
			</g>
			<g enable-background="new    ">
				<path fill="#FFFFFF" d="M541.198,301.371l2.314-5.396l0.746,0.333l0.52,3.479c0.129,0.808,0.194,1.509,0.204,2.174L545,301.96
					c0.241-0.75,0.506-1.413,0.867-2.253l0.979-2.258l0.641,0.287l-2.319,5.391l-0.688-0.304l-0.509-3.484
					c-0.103-0.762-0.189-1.53-0.207-2.236l-0.031-0.003c-0.245,0.702-0.521,1.354-0.911,2.249l-0.986,2.304L541.198,301.371z"/>
			</g>
			<g enable-background="new    ">
				<path fill="#FFFFFF" d="M547.922,302.382l-1.329,1.417l-0.696-0.336l4.259-4.472l0.814,0.39l-0.699,6.176l-0.729-0.345
					l0.223-1.94L547.922,302.382z M549.885,302.669l0.195-1.778c0.049-0.402,0.119-0.757,0.191-1.101l-0.014-0.008
					c-0.232,0.282-0.462,0.562-0.719,0.84l-1.217,1.293L549.885,302.669z"/>
			</g>
			<g enable-background="new    ">
				<path fill="#FFFFFF" d="M550.968,305.906l2.631-5.243l0.729,0.375l0.316,3.508c0.074,0.81,0.098,1.519,0.072,2.18h0.018
					c0.286-0.731,0.584-1.378,1-2.192l1.104-2.196l0.622,0.324l-2.636,5.246l-0.671-0.349l-0.297-3.507
					c-0.07-0.77-0.109-1.543-0.082-2.246l-0.026-0.005c-0.295,0.685-0.591,1.317-1.029,2.191l-1.129,2.243L550.968,305.906z"/>
			</g>
			<g enable-background="new    ">
				<path fill="#FFFFFF" d="M559.552,310.291c-0.299-0.013-0.853-0.154-1.468-0.494c-1.426-0.796-2.012-2.312-1.096-4.005
					c0.866-1.613,2.533-2.117,4.106-1.243c0.627,0.35,0.949,0.708,1.077,0.895l-0.448,0.457c-0.181-0.259-0.491-0.55-0.91-0.781
					c-1.182-0.658-2.389-0.326-3.115,1.033c-0.679,1.262-0.406,2.472,0.827,3.154c0.396,0.22,0.84,0.361,1.178,0.377
					L559.552,310.291z"/>
			</g>
			<g enable-background="new    ">
				<path fill="#FFFFFF" d="M564.187,310.044l-1.942-1.141l-1.051,1.836l2.164,1.269l-0.312,0.553l-2.814-1.649l2.906-5.092
					l2.7,1.586l-0.313,0.552l-2.058-1.208l-0.912,1.607l1.943,1.14L564.187,310.044z"/>
			</g>
			<g enable-background="new    ">
				<path fill="#FFFFFF" d="M378.563,311.017"/>
			</g>
			<g>
				<path fill="#FFFFFF" d="M453.889,295.668l-0.45,1.98l-0.823,0.084l1.478-6.313l0.958-0.098l2.718,5.894l-0.843,0.083
					l-0.861-1.853L453.889,295.668z M455.841,294.849l-0.778-1.697c-0.179-0.385-0.313-0.738-0.428-1.082l-0.019,0.003
					c-0.061,0.371-0.122,0.751-0.194,1.136l-0.433,1.824L455.841,294.849z"/>
				<path fill="#FFFFFF" d="M458.644,297.148l-0.42-6.117l0.863-0.06l2.192,2.961c0.516,0.685,0.917,1.304,1.255,1.911l0.019-0.012
					c-0.141-0.813-0.201-1.556-0.273-2.507l-0.18-2.56l0.752-0.053l0.432,6.119l-0.815,0.053l-2.171-2.968
					c-0.486-0.651-0.939-1.322-1.3-1.963l-0.024,0.011c0.097,0.771,0.168,1.503,0.234,2.519l0.186,2.614L458.644,297.148z"/>
				<path fill="#FFFFFF" d="M464.306,290.753c0.491-0.095,1.063-0.181,1.692-0.215c1.149-0.056,1.984,0.164,2.551,0.638
					c0.578,0.473,0.937,1.166,0.98,2.154c0.051,1.001-0.214,1.838-0.761,2.426c-0.55,0.603-1.494,0.96-2.691,1.023
					c-0.572,0.031-1.051,0.027-1.456,0.001L464.306,290.753z M465.389,296.132c0.202,0.026,0.501,0.021,0.807,0.003
					c1.707-0.084,2.584-1.077,2.5-2.731c-0.069-1.445-0.937-2.323-2.632-2.237c-0.414,0.021-0.718,0.072-0.924,0.129
					L465.389,296.132z"/>
				<path fill="#FFFFFF" d="M472.513,295.594c0.357,0.219,0.887,0.404,1.438,0.407c0.807,0.003,1.289-0.423,1.293-1.041
					c0.002-0.572-0.322-0.902-1.163-1.227c-1.004-0.359-1.632-0.88-1.63-1.743c0.003-0.955,0.807-1.663,2.012-1.659
					c0.629,0.001,1.092,0.151,1.365,0.308l-0.219,0.646c-0.192-0.109-0.605-0.294-1.175-0.297c-0.842-0.003-1.166,0.497-1.167,0.916
					c-0.003,0.572,0.369,0.854,1.225,1.188c1.044,0.403,1.582,0.906,1.58,1.809c-0.004,0.946-0.714,1.764-2.173,1.758
					c-0.604-0.002-1.251-0.178-1.577-0.396L472.513,295.594z"/>
				<path fill="#FFFFFF" d="M477.306,290.461l0.784,0.023l-0.074,2.957l0.027,0.001c0.169-0.231,0.34-0.446,0.493-0.643l1.971-2.244
					l0.979,0.028l-2.306,2.535l2.3,3.603l-0.936-0.027l-1.95-3.071l-0.604,0.655l-0.073,2.34l-0.801-0.022L477.306,290.461z"/>
				<path fill="#FFFFFF" d="M483.171,290.674l-0.31,6.13l-0.801-0.04l0.309-6.13L483.171,290.674z"/>
				<path fill="#FFFFFF" d="M484.646,290.746l0.8,0.055l-0.371,5.464l2.643,0.175l-0.046,0.663l-3.439-0.229L484.646,290.746z"/>
				<path fill="#FFFFFF" d="M489.077,291.065l0.809,0.072l-0.514,5.448l2.64,0.238l-0.051,0.66l-3.433-0.31L489.077,291.065z"/>
				<path fill="#FFFFFF" d="M492.799,296.606c0.332,0.258,0.839,0.498,1.387,0.563c0.811,0.091,1.337-0.278,1.407-0.891
					c0.068-0.569-0.22-0.933-1.015-1.345c-0.974-0.472-1.522-1.06-1.436-1.916c0.115-0.949,0.999-1.563,2.196-1.423
					c0.629,0.071,1.067,0.27,1.32,0.452l-0.293,0.617c-0.204-0.13-0.588-0.358-1.135-0.422c-0.841-0.099-1.22,0.361-1.276,0.779
					c-0.067,0.566,0.289,0.891,1.083,1.316c1.005,0.517,1.477,1.074,1.37,1.972c-0.106,0.939-0.908,1.673-2.36,1.505
					c-0.59-0.069-1.23-0.316-1.52-0.57L492.799,296.606z"/>
				<path fill="#FFFFFF" d="M587.832,339.751l-1.766-1.565l-1.45,1.629l1.959,1.747l-0.438,0.486l-2.536-2.266l4.013-4.529
					l2.444,2.182l-0.439,0.488l-1.854-1.656l-1.278,1.429l1.764,1.569L587.832,339.751z"/>
				<path fill="#FFFFFF" d="M586.867,342.71l4.155-4.413l0.619,0.586l-0.693,3.566c-0.149,0.829-0.341,1.533-0.553,2.183
					l0.019,0.008c0.495-0.643,0.985-1.188,1.635-1.876l1.745-1.847l0.525,0.509l-4.158,4.41l-0.566-0.542l0.705-3.562
					c0.163-0.783,0.33-1.563,0.567-2.25l-0.024-0.012c-0.493,0.586-0.984,1.129-1.671,1.859l-1.768,1.887L586.867,342.71z"/>
				<path fill="#FFFFFF" d="M592.051,347.707l2.897-5.684l0.591,0.6l-1.448,2.779c-0.394,0.763-0.759,1.445-1.144,2.063l0.017,0.012
					c0.612-0.376,1.333-0.735,2.085-1.104l2.836-1.384l0.583,0.588l-5.804,2.747L592.051,347.707z"/>
				<path fill="#FFFFFF" d="M599.53,346.694l-4.382,4.188l-0.53-0.563l4.367-4.19L599.53,346.694z"/>
				<path fill="#FFFFFF" d="M600.462,347.788c0.325,0.239,0.74,0.622,1.106,1.021c0.571,0.617,0.823,1.116,0.824,1.632
					c0.01,0.407-0.19,0.812-0.531,1.13c-0.582,0.542-1.311,0.529-1.913,0.209l-0.016,0.013c0.199,0.457,0.071,0.952-0.301,1.489
					c-0.48,0.717-0.818,1.217-0.898,1.473l-0.553-0.597c0.061-0.187,0.35-0.646,0.793-1.278c0.498-0.705,0.508-1.152,0.046-1.692
					l-0.508-0.542l-1.932,1.779l-0.521-0.58L600.462,347.788z M598.962,350.239l0.542,0.588c0.559,0.61,1.254,0.696,1.767,0.225
					c0.569-0.529,0.444-1.181-0.114-1.796c-0.25-0.277-0.465-0.452-0.566-0.52L598.962,350.239z"/>
				<path fill="#FFFFFF" d="M605.034,357.294c-1.579,1.364-3.231,1.128-4.252-0.043c-1.042-1.211-0.844-2.874,0.554-4.076
					c1.449-1.257,3.178-1.176,4.237,0.051C606.658,354.479,606.39,356.12,605.034,357.294z M601.888,353.798
					c-0.972,0.844-1.394,2.134-0.583,3.073c0.813,0.937,2.126,0.726,3.162-0.18c0.913-0.785,1.459-2.086,0.608-3.072
					C604.222,352.636,602.901,352.926,601.888,353.798z"/>
				<path fill="#FFFFFF" d="M603.316,360.063l4.701-3.804l0.536,0.666l-1.16,3.438c-0.282,0.795-0.556,1.472-0.854,2.082
					l0.019,0.011c0.578-0.559,1.142-1.042,1.879-1.634l1.975-1.588l0.455,0.574l-4.698,3.807l-0.505-0.618l1.188-3.429
					c0.255-0.754,0.549-1.502,0.863-2.149l-0.024-0.015c-0.57,0.513-1.117,0.984-1.901,1.614l-2.017,1.626L603.316,360.063z"/>
				<path fill="#FFFFFF" d="M612.155,367.131c0.645-0.542,1.425-1.195,2.041-1.639l-0.014-0.022
					c-0.702,0.258-1.456,0.51-2.297,0.768l-2.986,0.901l-0.359-0.477l1.715-2.512c0.518-0.743,0.987-1.412,1.465-1.979l-0.014-0.015
					c-0.612,0.443-1.451,1.014-2.211,1.513l-2.172,1.431l-0.447-0.6l5.1-3.294l0.6,0.801l-1.729,2.586
					c-0.438,0.647-0.849,1.217-1.263,1.713l0.016,0.021c0.575-0.244,1.241-0.47,2.009-0.709l2.992-0.891l0.596,0.797l-4.624,3.936
					l-0.458-0.615L612.155,367.131z"/>
				<path fill="#FFFFFF" d="M615.352,371.367l-1.341-1.929l-1.788,1.249l1.503,2.16l-0.541,0.374l-1.948-2.797l4.966-3.474
					l1.871,2.687l-0.528,0.376l-1.432-2.046l-1.561,1.101l1.338,1.929L615.352,371.367z"/>
				<path fill="#FFFFFF" d="M613.727,374.015l5.055-3.319l0.474,0.717l-1.502,3.307c-0.35,0.763-0.688,1.409-1.048,1.986
					l0.017,0.013c0.633-0.5,1.237-0.924,2.022-1.438l2.125-1.389l0.402,0.616l-5.072,3.317l-0.434-0.659l1.519-3.302
					c0.333-0.725,0.692-1.441,1.075-2.057l-0.017-0.016c-0.621,0.458-1.214,0.874-2.061,1.426l-2.163,1.414L613.727,374.015z"/>
				<path fill="#FFFFFF" d="M622.099,377.102l-0.968-1.575l0.57-0.349l2.335,3.825l-0.556,0.348l-0.974-1.58l-4.576,2.824
					l-0.42-0.675L622.099,377.102z"/>
				<path fill="#FFFFFF" d="M641.653,446.882l5.795-2.306l0.11,0.824l-2.942,1.106c-0.727,0.269-1.455,0.532-2.023,0.714
					l0.003,0.017c0.605,0.021,1.345,0.112,2.141,0.222l3.133,0.41l0.105,0.811l-2.95,1.129c-0.698,0.266-1.389,0.519-2.002,0.689
					l0.004,0.017c0.672,0.038,1.361,0.124,2.133,0.209l3.131,0.401l0.106,0.793l-6.229-0.926l-0.104-0.813l3.023-1.163
					c0.74-0.29,1.317-0.49,1.91-0.649l-0.004-0.016c-0.605-0.03-1.211-0.084-2.008-0.212l-3.247-0.446L641.653,446.882z"/>
				<path fill="#FFFFFF" d="M645.562,456.273l-0.214-2.352l-2.174,0.21l0.247,2.611l-0.649,0.065l-0.328-3.39l6.021-0.574
					l0.314,3.261l-0.658,0.063l-0.231-2.479l-1.903,0.183l0.219,2.344L645.562,456.273z"/>
				<path fill="#FFFFFF" d="M648.866,457.344l0.057,0.785l-5.374,0.378l0.184,2.582l-0.646,0.047l-0.246-3.364L648.866,457.344z"/>
				<path fill="#FFFFFF" d="M649.162,461.679l0.038,0.785l-5.389,0.276l0.127,2.59l-0.655,0.034l-0.165-3.373L649.162,461.679z"/>
				<path fill="#FFFFFF" d="M646.048,467.57l-0.589,0.016l-0.038-2.221l0.584-0.015L646.048,467.57z"/>
				<path fill="#FFFFFF" d="M649.331,468.509c0.077,0.336,0.14,0.876,0.145,1.425c0.006,0.786-0.132,1.294-0.43,1.673
					c-0.233,0.32-0.596,0.503-1.063,0.506c-0.591,0.004-1.094-0.378-1.347-1.012h-0.018c-0.127,0.582-0.604,1.259-1.508,1.268
					c-0.513,0.007-0.911-0.206-1.209-0.504c-0.391-0.418-0.58-1.102-0.592-2.092c-0.005-0.542,0.03-0.958,0.063-1.213
					L649.331,468.509z M643.959,469.334c-0.025,0.157-0.029,0.377-0.027,0.653c0.004,0.814,0.31,1.562,1.185,1.553
					c0.827-0.011,1.163-0.724,1.155-1.58l-0.005-0.643L643.959,469.334z M646.867,469.312l0.008,0.705
					c0.008,0.825,0.434,1.307,1.017,1.303c0.707-0.009,0.98-0.545,0.972-1.337c-0.004-0.356-0.029-0.567-0.057-0.694
					L646.867,469.312z"/>
				<path fill="#FFFFFF" d="M646.166,476.568l0.036-2.351l-2.182-0.043l-0.049,2.628l-0.649-0.016l0.066-3.415l6.055,0.113
					l-0.063,3.271l-0.65-0.014l0.041-2.491l-1.909-0.04l-0.047,2.354h-0.649V476.568z"/>
				<path fill="#FFFFFF" d="M649.297,478.802l-6.051-0.225l0.031-0.787l6.049,0.23L649.297,478.802z"/>
				<path fill="#FFFFFF" d="M643.206,479.898l6.036,0.358l-0.046,0.848l-3.168,1.763c-0.731,0.411-1.39,0.722-2.034,0.961
					l0.008,0.019c0.816-0.022,1.549,0.003,2.498,0.063l2.521,0.153l-0.046,0.736l-6.038-0.358l0.048-0.791l3.183-1.744
					c0.701-0.387,1.407-0.744,2.081-1.012l-0.01-0.03c-0.763,0.002-1.487-0.021-2.483-0.082l-2.582-0.149L643.206,479.898z"/>
				<path fill="#FFFFFF" d="M642.692,490.386c-0.098-0.356-0.243-1.069-0.165-1.887c0.088-0.914,0.388-1.648,1.004-2.18
					c0.553-0.476,1.389-0.729,2.316-0.646c1.806,0.182,2.996,1.537,2.813,3.565c-0.067,0.696-0.265,1.229-0.42,1.479l-0.611-0.242
					c0.164-0.316,0.327-0.709,0.384-1.313c0.124-1.473-0.693-2.512-2.207-2.655c-1.526-0.145-2.521,0.701-2.643,2.101
					c-0.044,0.514-0.008,0.87,0.059,1.061l1.807,0.159l0.107-1.226l0.63,0.057l-0.191,1.99L642.692,490.386z"/>
				<path fill="#FFFFFF" d="M633.09,546.818c-0.092,0.391-0.292,0.921-0.513,1.413c-0.354,0.757-0.724,1.182-1.195,1.376
					c-0.373,0.164-0.824,0.145-1.249-0.061c-0.723-0.341-0.985-1.016-0.904-1.686l-0.02-0.013c-0.348,0.354-0.858,0.425-1.484,0.283
					c-0.85-0.175-1.443-0.297-1.706-0.277l0.342-0.731c0.204-0.016,0.724,0.084,1.479,0.239c0.835,0.198,1.258,0.032,1.581-0.592
					l0.309-0.668l-2.364-1.112l0.334-0.718L633.09,546.818z M630.271,546.354l-0.338,0.725c-0.353,0.76-0.169,1.429,0.46,1.723
					c0.71,0.34,1.25-0.032,1.611-0.778c0.165-0.346,0.244-0.604,0.262-0.737L630.271,546.354z"/>
				<path fill="#FFFFFF" d="M626.777,552.683l1.046-2.104l-1.943-0.985l-1.169,2.354l-0.596-0.294l1.526-3.05l5.417,2.719
					l-1.465,2.927l-0.597-0.291l1.113-2.232l-1.706-0.857l-1.053,2.104L626.777,552.683z"/>
				<path fill="#FFFFFF" d="M629.005,555.373l-0.365,0.691l-4.758-2.536l-1.22,2.287l-0.575-0.303l1.572-2.985L629.005,555.373z"/>
				<path fill="#FFFFFF" d="M622.863,558.026l-1.352-1.493l0.398-0.701l4.25,4.786l-0.469,0.823l-6.281-1.199l0.418-0.729
					l1.96,0.383L622.863,558.026z M622.412,560.058l1.801,0.353c0.416,0.068,0.766,0.173,1.115,0.27l0.013-0.015
					c-0.268-0.25-0.544-0.527-0.804-0.811l-1.231-1.384L622.412,560.058z"/>
				<path fill="#FFFFFF" d="M623.337,564.146l0.956-1.583l0.56,0.34l-2.312,3.85l-0.559-0.342l0.944-1.59l-4.606-2.787l0.401-0.675
					L623.337,564.146z"/>
				<path fill="#FFFFFF" d="M621.725,568.056l-5.128-3.213l0.418-0.663l5.124,3.215L621.725,568.056z"/>
				<path fill="#FFFFFF" d="M615.632,572.007c-1.751-1.148-1.97-2.822-1.112-4.109c0.871-1.338,2.528-1.591,4.059-0.585
					c1.607,1.061,2.001,2.761,1.106,4.104C618.764,572.807,617.128,572.994,615.632,572.007z M618.129,568.02
					c-1.077-0.713-2.428-0.767-3.112,0.267c-0.679,1.032-0.104,2.251,1.038,3.017c0.993,0.659,2.392,0.825,3.105-0.263
					C619.875,569.956,619.235,568.752,618.129,568.02z"/>
				<path fill="#FFFFFF" d="M612.504,571.082l4.936,3.511l-0.499,0.697l-3.61-0.188c-0.843-0.04-1.563-0.127-2.229-0.253
					l-0.004,0.02c0.701,0.412,1.303,0.82,2.076,1.371l2.067,1.472l-0.426,0.597l-4.937-3.512l0.46-0.642l3.604,0.204
					c0.793,0.045,1.597,0.12,2.303,0.25l0.013-0.021c-0.644-0.409-1.256-0.816-2.068-1.396l-2.114-1.502L612.504,571.082z"/>
				<path fill="#FFFFFF" d="M609.908,576.347c-0.385,0.159-0.839,0.455-1.162,0.888c-0.482,0.638-0.427,1.271,0.064,1.636
					c0.452,0.344,0.901,0.278,1.646-0.187c0.875-0.577,1.653-0.76,2.328-0.24c0.754,0.563,0.85,1.61,0.137,2.558
					c-0.374,0.5-0.762,0.77-1.042,0.887l-0.383-0.553c0.201-0.098,0.585-0.305,0.917-0.747c0.507-0.659,0.297-1.214-0.037-1.46
					c-0.443-0.339-0.892-0.223-1.648,0.257c-0.941,0.587-1.646,0.7-2.35,0.165c-0.745-0.569-0.969-1.612-0.118-2.756
					c0.353-0.474,0.878-0.879,1.243-1L609.908,576.347z"/>
				<path fill="#FFFFFF" d="M610.673,583.766l-1.978-1.586l-1.831,2.293l1.98,1.579l-0.5,0.622l-4.718-3.791l0.485-0.621
					l2.218,1.781l1.831-2.294l-2.218-1.774l0.485-0.619l4.734,3.791L610.673,583.766z"/>
				<path fill="#FFFFFF" d="M606.899,588.388l-4.64-3.889l0.509-0.609l4.642,3.906L606.899,588.388z"/>
				<path fill="#FFFFFF" d="M605.916,589.451c-0.206,0.332-0.486,0.732-0.903,1.209c-0.509,0.592-1.009,0.898-1.49,0.958
					c-0.438,0.055-0.902-0.08-1.31-0.435c-0.404-0.359-0.627-0.766-0.666-1.207c-0.063-0.596,0.225-1.263,0.709-1.831
					c0.165-0.186,0.309-0.333,0.458-0.442l-1.824-1.604l0.513-0.582L605.916,589.451z M603.203,588.128
					c-0.152,0.102-0.301,0.24-0.479,0.444c-0.612,0.711-0.646,1.443-0.021,1.989c0.605,0.534,1.271,0.356,1.825-0.297
					c0.233-0.256,0.375-0.47,0.438-0.593L603.203,588.128z"/>
				<path fill="#FFFFFF" d="M599.052,589.65c-0.396,0.115-0.883,0.369-1.245,0.766c-0.53,0.586-0.534,1.222-0.103,1.636
					c0.419,0.377,0.882,0.355,1.66-0.025c0.932-0.493,1.709-0.595,2.349-0.016c0.695,0.639,0.679,1.684-0.117,2.559
					c-0.419,0.459-0.828,0.688-1.125,0.787l-0.317-0.598c0.208-0.076,0.613-0.246,0.984-0.65c0.567-0.609,0.413-1.177,0.108-1.454
					c-0.42-0.387-0.877-0.299-1.677,0.104c-0.982,0.479-1.698,0.529-2.348-0.07c-0.688-0.637-0.818-1.695,0.143-2.751
					c0.396-0.43,0.961-0.787,1.336-0.879L599.052,589.65z"/>
				<path fill="#FFFFFF" d="M307.268,395.03l1.369-2.925l0.587,0.278l-1.039,2.217l1.802,0.842l0.963-2.049l0.584,0.274
					l-0.966,2.052l2.456,1.149l-0.33,0.698L307.268,395.03z"/>
				<path fill="#FFFFFF" d="M309.509,390.338l5.372,2.646l-0.342,0.694l-5.373-2.646L309.509,390.338z"/>
				<path fill="#FFFFFF" d="M315.455,391.807l-5.312-2.773l0.39-0.749l3.576-0.299c0.83-0.072,1.547-0.084,2.222-0.055v-0.019
					c-0.74-0.303-1.394-0.623-2.223-1.059l-2.219-1.156l0.333-0.642l5.313,2.768l-0.357,0.691l-3.575,0.286
					c-0.783,0.056-1.579,0.096-2.293,0.063l-0.005,0.028c0.688,0.313,1.336,0.63,2.22,1.087l2.266,1.184L315.455,391.807z"/>
				<path fill="#FFFFFF" d="M316.987,384.905l1.339,1.473l-0.392,0.693l-4.232-4.708l0.459-0.816l6.228,1.155l-0.406,0.72
					l-1.957-0.365L316.987,384.905z M317.425,382.899l-1.796-0.331c-0.404-0.078-0.757-0.172-1.103-0.271l-0.012,0.018
					c0.271,0.253,0.538,0.513,0.801,0.795l1.218,1.359L317.425,382.899z"/>
				<path fill="#FFFFFF" d="M320.815,381.986l-5.118-3.11l0.438-0.723l3.585-0.065c0.838-0.016,1.556,0.015,2.226,0.089v-0.02
					c-0.723-0.354-1.351-0.719-2.146-1.197l-2.154-1.299l0.379-0.625l5.13,3.105l-0.408,0.672l-3.59,0.052
					c-0.779,0.01-1.575-0.002-2.289-0.083l-0.008,0.03c0.67,0.353,1.298,0.709,2.149,1.224l2.186,1.329L320.815,381.986z"/>
				<path fill="#FFFFFF" d="M325.966,373.414c-0.04,0.315-0.229,0.867-0.623,1.483c-0.923,1.414-2.509,1.902-4.158,0.832
					c-1.57-1.021-1.943-2.784-0.932-4.342c0.41-0.621,0.801-0.933,1.003-1.046l0.427,0.498c-0.281,0.167-0.598,0.465-0.871,0.883
					c-0.765,1.172-0.522,2.447,0.798,3.306c1.235,0.801,2.481,0.606,3.28-0.618c0.254-0.398,0.436-0.848,0.474-1.191
					L325.966,373.414z"/>
				<path fill="#FFFFFF" d="M326.093,368.619l-1.324,1.919l1.781,1.227l1.47-2.132l0.532,0.367l-1.912,2.773l-4.931-3.405
					l1.836-2.663l0.531,0.368l-1.394,2.024l1.555,1.075l1.322-1.917L326.093,368.619z"/>
			</g>
		</g>
		<g>
			<path fill="#FFFFFF" d="M455.669,281.561l-2.399,0.224l0.214,2.202l2.674-0.249l0.057,0.663l-3.462,0.321l-0.58-6.111
				l3.334-0.313l0.066,0.665l-2.541,0.232l0.184,1.933l2.4-0.224L455.669,281.561z"/>
			<path fill="#FFFFFF" d="M456.815,278.271c0.492-0.103,1.057-0.196,1.693-0.236c1.146-0.077,1.988,0.132,2.557,0.596
				c0.578,0.464,0.951,1.15,1.013,2.142c0.074,1.001-0.19,1.835-0.727,2.438c-0.537,0.613-1.47,0.986-2.676,1.064
				c-0.568,0.037-1.041,0.042-1.453,0.021L456.815,278.271z M457.981,283.637c0.206,0.023,0.494,0.015,0.813-0.009
				c1.704-0.111,2.563-1.117,2.458-2.771c-0.094-1.449-0.977-2.311-2.665-2.2c-0.416,0.027-0.723,0.085-0.929,0.146L457.981,283.637
				z"/>
			<path fill="#FFFFFF" d="M463.751,277.807l0.188,3.63c0.078,1.372,0.716,1.921,1.545,1.882c0.919-0.047,1.478-0.679,1.407-2.035
				l-0.189-3.625l0.804-0.043l0.188,3.574c0.105,1.882-0.857,2.705-2.2,2.773c-1.262,0.065-2.258-0.605-2.354-2.506l-0.188-3.607
				L463.751,277.807z"/>
			<path fill="#FFFFFF" d="M473.513,283.52c-0.307,0.15-0.887,0.299-1.641,0.306c-1.751,0.014-3.072-1.069-3.086-3.084
				c-0.011-1.921,1.292-3.232,3.219-3.249c0.771-0.006,1.248,0.156,1.473,0.262l-0.199,0.65c-0.303-0.146-0.737-0.25-1.243-0.247
				c-1.463,0.013-2.417,0.939-2.406,2.55c0.018,1.503,0.896,2.462,2.406,2.451c0.479-0.004,0.978-0.108,1.294-0.264L473.513,283.52z
				"/>
			<path fill="#FFFFFF" d="M475.545,281.822l-0.686,1.915l-0.829-0.018l2.229-6.092l0.973,0.02l1.985,6.179l-0.854-0.018
				l-0.637-1.944L475.545,281.822z M477.594,281.243l-0.582-1.778c-0.117-0.403-0.205-0.771-0.288-1.127h-0.021
				c-0.108,0.362-0.204,0.733-0.335,1.104l-0.64,1.766L477.594,281.243z"/>
			<path fill="#FFFFFF" d="M480.776,278.439l-1.881-0.079l0.031-0.675l4.59,0.192l-0.032,0.675l-1.894-0.081l-0.231,5.453
				l-0.811-0.031L480.776,278.439z"/>
			<path fill="#FFFFFF" d="M485.096,277.982l-0.369,6.122l-0.803-0.044l0.372-6.127L485.096,277.982z"/>
			<path fill="#FFFFFF" d="M491.615,281.483c-0.172,2.104-1.555,3.117-3.134,2.988c-1.642-0.132-2.668-1.478-2.52-3.327
				c0.158-1.942,1.483-3.11,3.12-2.979C490.783,278.303,491.766,279.67,491.615,281.483z M486.81,281.198
				c-0.095,1.307,0.521,2.532,1.778,2.636c1.246,0.102,2.068-0.992,2.185-2.38c0.097-1.215-0.433-2.538-1.771-2.645
				C487.69,278.7,486.932,279.854,486.81,281.198z"/>
			<path fill="#FFFFFF" d="M492.35,284.707l0.7-6.096l0.854,0.098l1.629,3.31c0.369,0.766,0.646,1.45,0.875,2.104l0.018-0.006
				c0.021-0.82,0.09-1.564,0.188-2.514l0.29-2.555l0.749,0.083l-0.699,6.099l-0.805-0.087l-1.588-3.316
				c-0.351-0.728-0.688-1.473-0.921-2.167l-0.038,0.007c-0.047,0.774-0.094,1.508-0.211,2.523l-0.3,2.607L492.35,284.707z"/>
			<path fill="#FFFFFF" d="M598.844,337.102l4.268-4.311l0.603,0.602l-0.773,3.549c-0.182,0.822-0.377,1.526-0.614,2.167
				l0.017,0.008c0.521-0.625,1.017-1.162,1.694-1.831l1.777-1.806l0.521,0.519l-4.261,4.313l-0.566-0.56l0.797-3.545
				c0.183-0.778,0.376-1.554,0.62-2.234l-0.019-0.016c-0.507,0.574-1.013,1.105-1.718,1.825l-1.821,1.839L598.844,337.102z"/>
			<path fill="#FFFFFF" d="M605.053,340.655l-1.812,0.856l-0.563-0.588l5.81-2.68l0.645,0.684l-2.962,5.678l-0.58-0.609l0.938-1.784
				L605.053,340.655z M606.859,341.674l0.859-1.63c0.186-0.372,0.392-0.683,0.579-0.993l-0.015-0.015
				c-0.32,0.186-0.654,0.363-1.001,0.533l-1.682,0.776L606.859,341.674z"/>
			<path fill="#FFFFFF" d="M611.02,341.948l-1.24-1.362l0.497-0.447l3.006,3.325l-0.498,0.444l-1.229-1.368l-3.995,3.623
				l-0.522-0.583L611.02,341.948z"/>
			<path fill="#FFFFFF" d="M614.336,344.658l-2.718,2.347c-1.026,0.885-1.075,1.718-0.539,2.333c0.58,0.679,1.405,0.73,2.419-0.146
				l2.718-2.342l0.521,0.603l-2.678,2.299c-1.4,1.217-2.624,0.975-3.484-0.021c-0.811-0.941-0.878-2.111,0.55-3.342l2.702-2.329
				L614.336,344.658z"/>
			<path fill="#FFFFFF" d="M617.6,348.628c0.314,0.256,0.709,0.67,1.048,1.088c0.521,0.647,0.75,1.162,0.721,1.674
				c-0.015,0.405-0.234,0.798-0.597,1.099c-0.614,0.5-1.34,0.442-1.91,0.087l-0.014,0.015c0.163,0.472,0.008,0.957-0.394,1.465
				c-0.531,0.69-0.895,1.167-0.994,1.416l-0.51-0.631c0.07-0.186,0.396-0.614,0.865-1.225c0.54-0.669,0.581-1.116,0.157-1.686
				l-0.472-0.573l-2.031,1.658l-0.485-0.609L617.6,348.628z M615.954,350.979l0.5,0.62c0.526,0.647,1.214,0.769,1.756,0.336
				c0.599-0.5,0.507-1.154,0-1.802c-0.249-0.295-0.439-0.477-0.55-0.557L615.954,350.979z"/>
			<path fill="#FFFFFF" d="M618.114,355.788l-1.888,0.671l-0.492-0.646l6.049-2.066l0.581,0.749l-3.54,5.343l-0.501-0.665
				l1.116-1.679L618.114,355.788z M619.818,356.993l1.017-1.532c0.226-0.349,0.463-0.645,0.681-0.929l-0.015-0.016
				c-0.339,0.149-0.689,0.296-1.051,0.431l-1.745,0.599L619.818,356.993z"/>
			<path fill="#FFFFFF" d="M624.197,356.945l0.464,0.633l-4.365,3.188l1.521,2.092l-0.521,0.386l-1.987-2.726L624.197,356.945z"/>
			<path fill="#FFFFFF" d="M660.776,448.212c0.096,0.368,0.211,0.85,0.29,1.479c0.095,0.764-0.017,1.354-0.3,1.749
				c-0.251,0.36-0.665,0.609-1.195,0.673c-0.548,0.067-0.995-0.045-1.341-0.311c-0.479-0.357-0.786-1.003-0.873-1.762
				c-0.028-0.233-0.045-0.45-0.016-0.633l-2.412,0.289l-0.094-0.777L660.776,448.212z M657.962,449.335
				c-0.021,0.175-0.016,0.389,0.016,0.646c0.116,0.938,0.634,1.461,1.462,1.359c0.792-0.093,1.106-0.7,1.015-1.559
				c-0.04-0.339-0.099-0.594-0.152-0.729L657.962,449.335z"/>
			<path fill="#FFFFFF" d="M658.5,456.493l-0.229-2.348l-2.169,0.209l0.243,2.615l-0.648,0.063l-0.318-3.389l6.02-0.575l0.308,3.259
				l-0.646,0.062l-0.236-2.477l-1.897,0.185l0.211,2.341L658.5,456.493z"/>
			<path fill="#FFFFFF" d="M661.729,457.575c0.112,0.39,0.199,0.955,0.24,1.489c0.054,0.834-0.053,1.385-0.372,1.787
				c-0.244,0.327-0.648,0.526-1.109,0.559c-0.788,0.053-1.359-0.411-1.612-1.031l-0.029,0.002c-0.135,0.477-0.545,0.787-1.156,0.976
				c-0.829,0.259-1.396,0.444-1.63,0.586l-0.056-0.808c0.166-0.109,0.685-0.282,1.421-0.506c0.813-0.24,1.107-0.586,1.082-1.292
				l-0.053-0.734l-2.606,0.187l-0.06-0.783L661.729,457.575z M659.034,458.554l0.059,0.796c0.062,0.832,0.563,1.33,1.247,1.281
				c0.781-0.059,1.076-0.646,1.023-1.473c-0.026-0.378-0.084-0.646-0.13-0.767L659.034,458.554z"/>
			<path fill="#FFFFFF" d="M657.044,462.651c-0.197,0.358-0.351,0.882-0.327,1.422c0.041,0.8,0.483,1.248,1.099,1.218
				c0.563-0.031,0.872-0.368,1.144-1.207c0.303-1.002,0.773-1.643,1.625-1.688c0.946-0.042,1.688,0.702,1.745,1.875
				c0.026,0.619-0.089,1.079-0.229,1.355l-0.646-0.185c0.103-0.207,0.253-0.619,0.225-1.167c-0.043-0.824-0.543-1.114-0.956-1.096
				c-0.569,0.03-0.824,0.415-1.106,1.266c-0.337,1.045-0.81,1.59-1.704,1.639c-0.923,0.046-1.769-0.604-1.846-2.032
				c-0.032-0.587,0.106-1.232,0.3-1.567L657.044,462.651z"/>
			<path fill="#FFFFFF" d="M659.486,472.318c-2.078,0.039-3.199-1.216-3.23-2.764c-0.031-1.598,1.188-2.748,3.021-2.783
				c1.918-0.037,3.192,1.139,3.223,2.755C662.529,471.19,661.278,472.284,659.486,472.318z M659.307,467.613
				c-1.297,0.02-2.443,0.746-2.419,1.978c0.021,1.246,1.177,1.925,2.544,1.898c1.202-0.021,2.457-0.675,2.432-1.979
				C661.84,468.21,660.631,467.588,659.307,467.613z"/>
			<path fill="#FFFFFF" d="M656.396,473.344l6.051,0.071l-0.011,0.854l-3.081,1.91c-0.715,0.436-1.354,0.776-1.971,1.068
				l0.013,0.015c0.809-0.063,1.541-0.072,2.482-0.063l2.523,0.024l-0.008,0.738l-6.051-0.069l0.01-0.794l3.095-1.894
				c0.677-0.415,1.375-0.813,2.037-1.109l-0.014-0.027c-0.766,0.041-1.487,0.045-2.497,0.039l-2.587-0.027L656.396,473.344z"/>
			<path fill="#FFFFFF" d="M658.179,480.272l-1.88-0.704l0.028-0.813l5.974,2.313l-0.042,0.939l-6.145,1.814l0.04-0.839l1.932-0.562
				L658.179,480.272z M658.699,482.28l1.771-0.52c0.395-0.119,0.76-0.191,1.111-0.274l0.002-0.015
				c-0.355-0.101-0.72-0.214-1.08-0.354l-1.724-0.669L658.699,482.28z"/>
			<path fill="#FFFFFF" d="M662.103,485.072l-0.049,0.782l-5.383-0.356l-0.175,2.589l-0.646-0.046l0.214-3.369L662.103,485.072z"/>
			<path fill="#FFFFFF" d="M630.168,575.657c-1.771-1.085-2.055-2.748-1.261-4.067c0.828-1.364,2.477-1.688,4.05-0.729
				c1.63,0.994,2.084,2.676,1.238,4.061C633.344,576.334,631.702,576.594,630.168,575.657z M632.527,571.586
				c-1.104-0.673-2.466-0.675-3.096,0.376c-0.644,1.059-0.037,2.253,1.137,2.969c1.022,0.622,2.433,0.746,3.11-0.372
				C634.346,573.453,633.662,572.274,632.527,571.586z"/>
			<path fill="#FFFFFF" d="M631.643,578.845l-3.005-1.961c-1.138-0.738-1.946-0.56-2.386,0.126c-0.486,0.756-0.306,1.56,0.813,2.294
				l3,1.961l-0.428,0.661l-2.959-1.925c-1.551-1.023-1.646-2.256-0.937-3.368c0.673-1.036,1.776-1.436,3.35-0.4l2.982,1.943
				L631.643,578.845z"/>
			<path fill="#FFFFFF" d="M628.74,583.107c-0.163,0.37-0.447,0.864-0.749,1.311c-0.479,0.685-0.913,1.04-1.398,1.158
				c-0.393,0.095-0.832,0.004-1.22-0.27c-0.654-0.448-0.808-1.168-0.623-1.82l-0.021-0.014c-0.39,0.295-0.903,0.279-1.506,0.036
				c-0.804-0.316-1.37-0.526-1.63-0.556l0.464-0.673c0.188,0.013,0.701,0.206,1.419,0.492c0.79,0.328,1.229,0.244,1.651-0.324
				l0.414-0.604l-2.151-1.497l0.449-0.65L628.74,583.107z M626.028,582.185l-0.455,0.655c-0.467,0.684-0.399,1.383,0.172,1.773
				c0.643,0.446,1.241,0.18,1.715-0.496c0.224-0.313,0.336-0.558,0.386-0.68L626.028,582.185z"/>
			<path fill="#FFFFFF" d="M293.996,390.778c0.103-0.364,0.266-0.829,0.525-1.392c0.329-0.698,0.726-1.12,1.162-1.311
				c0.397-0.18,0.87-0.175,1.356,0.052c0.487,0.231,0.809,0.555,0.962,0.959c0.217,0.556,0.139,1.258-0.186,1.939
				c-0.102,0.21-0.195,0.398-0.312,0.54l2.175,1.021l-0.325,0.694L293.996,390.778z M296.94,391.303
				c0.114-0.131,0.215-0.321,0.331-0.555c0.393-0.836,0.226-1.546-0.524-1.902c-0.718-0.331-1.3,0.012-1.667,0.781
				c-0.143,0.311-0.226,0.551-0.245,0.691L296.94,391.303z"/>
			<path fill="#FFFFFF" d="M300.229,385.015l-1.038,2.088l1.927,0.963l1.16-2.329l0.581,0.293l-1.496,3.01l-5.369-2.662l1.44-2.899
				l0.583,0.288l-1.099,2.211l1.694,0.837l1.038-2.083L300.229,385.015z"/>
			<path fill="#FFFFFF" d="M298.077,382.422c0.112-0.382,0.333-0.902,0.582-1.369c0.386-0.73,0.771-1.135,1.244-1.305
				c0.382-0.142,0.816-0.104,1.224,0.11c0.7,0.37,0.929,1.063,0.829,1.713l0.022,0.016c0.358-0.33,0.867-0.381,1.479-0.215
				c0.83,0.218,1.407,0.361,1.672,0.36l-0.376,0.71c-0.194,0.008-0.712-0.119-1.452-0.32c-0.816-0.23-1.243-0.089-1.595,0.521
				l-0.337,0.642l2.296,1.214l-0.359,0.688L298.077,382.422z M300.853,383.009l0.37-0.697c0.385-0.729,0.227-1.404-0.374-1.729
				c-0.688-0.358-1.249-0.02-1.642,0.7c-0.178,0.326-0.268,0.581-0.295,0.708L300.853,383.009z"/>
			<path fill="#FFFFFF" d="M304.67,380.615c0.354-0.198,0.757-0.554,1.021-1.011c0.383-0.699,0.24-1.298-0.281-1.601
				c-0.485-0.268-0.929-0.15-1.588,0.403c-0.784,0.682-1.518,0.964-2.253,0.552c-0.817-0.457-1.041-1.468-0.473-2.485
				c0.302-0.534,0.643-0.851,0.904-1.005l0.442,0.491c-0.188,0.118-0.538,0.381-0.806,0.854c-0.396,0.717-0.129,1.227,0.23,1.426
				c0.494,0.268,0.904,0.09,1.592-0.474c0.836-0.692,1.515-0.902,2.281-0.472c0.809,0.45,1.169,1.438,0.478,2.674
				c-0.285,0.498-0.736,0.971-1.079,1.143L304.67,380.615z"/>
			<path fill="#FFFFFF" d="M307.668,371.238c1.771,1.06,2.063,2.697,1.285,4.011c-0.812,1.357-2.435,1.683-3.989,0.754
				c-1.64-0.977-2.098-2.63-1.28-4.004C304.521,370.597,306.143,370.327,307.668,371.238z M305.369,375.285
				c1.099,0.654,2.438,0.646,3.063-0.396c0.63-1.062,0.014-2.229-1.153-2.931c-1.021-0.606-2.409-0.713-3.063,0.393
				C303.55,373.449,304.239,374.609,305.369,375.285z"/>
			<path fill="#FFFFFF" d="M310.811,372.001l-5.048-3.234l0.455-0.711l3.592,0.019c0.834,0.005,1.554,0.054,2.218,0.146l0.002-0.016
				c-0.709-0.374-1.336-0.751-2.118-1.257l-2.111-1.355l0.388-0.612l5.048,3.239l-0.42,0.661l-3.591-0.043
				c-0.785-0.009-1.578-0.043-2.292-0.138l-0.007,0.025c0.662,0.371,1.278,0.749,2.114,1.289l2.16,1.38L310.811,372.001z"/>
			<path fill="#FFFFFF" d="M312.95,365.267l1.209,1.571l-0.454,0.667l-3.793-5.062l0.529-0.771l6.093,1.695l-0.462,0.679
				l-1.921-0.533L312.95,365.267z M313.561,363.301l-1.758-0.486c-0.397-0.11-0.742-0.242-1.075-0.359l-0.01,0.015
				c0.245,0.268,0.488,0.56,0.723,0.858l1.1,1.459L313.561,363.301z"/>
			<path fill="#FFFFFF" d="M312.174,359.168l0.455-0.625l4.332,3.129l1.501-2.075l0.523,0.381l-1.948,2.704L312.174,359.168z"/>
		</g>
	</g>
</g>
</svg>
